HIERARCHY
ROOT Hips
{
	OFFSET 0.000000 0.000000 0.000000 
	CHANNELS 6 Xposition Yposition Zposition Yrotation Zrotation Xrotation 
	JOINT Lumbar
	{
		OFFSET 0.000000 0.000000 0.000000 
		CHANNELS 3 Zrotation Xrotation Yrotation
		JOINT Neck
		{
			OFFSET 0.000000 0.445665 0.000000 
			CHANNELS 3 Zrotation Xrotation Yrotation
			End Site
			{
				OFFSET 0.000000 0.227535 0.000000 
			}
		}
		JOINT RightShoulder
		{
			OFFSET 0.019635 0.377685 0.194865 
			CHANNELS 3 Zrotation Xrotation Yrotation
			JOINT RightElbow
			{
				OFFSET 0.000000 -0.243375 0.000000 
				CHANNELS 2 Zrotation Yrotation
				JOINT RightWrist
				{
					OFFSET 0.000000 -0.264825 0.000000 
					CHANNELS 2 Zrotation Xrotation
					End Site
					{
						OFFSET 0.006600 -0.176220 0.000990 
					}
				}
			}
		}
		JOINT LeftShoulder
		{
			OFFSET 0.019635 0.377685 -0.194865 
			CHANNELS 3 Zrotation Xrotation Yrotation
			JOINT LeftElbow
			{
				OFFSET 0.000000 -0.243375 0.000000 
				CHANNELS 2 Zrotation Yrotation
				JOINT LeftWrist
				{
					OFFSET 0.000000 -0.264825 0.000000 
					CHANNELS 2 Zrotation Xrotation
					End Site
					{
						OFFSET 0.006600 -0.176220 -0.000990 
					}
				}
			}
		}
	}
	JOINT RightHip
	{
		OFFSET 0.052140 -0.069960 0.075570 
		CHANNELS 3 Zrotation Xrotation Yrotation
		JOINT RightKnee
		{
			OFFSET 0.000000 -0.402270 0.000000 
			CHANNELS 1 Zrotation
			JOINT RightAnkle
			{
				OFFSET 0.000000 -0.404085 0.000000 
				CHANNELS 3 Zrotation Xrotation Yrotation
				End Site
				{
					OFFSET 0.204105 -0.089430 0.008415 
				}
			}
		}
	}
	JOINT LeftHip
	{
		OFFSET 0.052140 -0.069960 -0.075570 
		CHANNELS 3 Zrotation Xrotation Yrotation
		JOINT LeftKnee
		{
			OFFSET 0.000000 -0.402270 0.000000 
			CHANNELS 1 Zrotation
			JOINT LeftAnkle
			{
				OFFSET 0.000000 -0.404085 0.000000 
				CHANNELS 3 Zrotation Xrotation Yrotation
				End Site
				{
					OFFSET 0.204105 -0.089430 -0.008415 
				}
			}
		}
	}
}
MOTION
Frames: 28
Frame Time: 0.02
1e-05 1e-05 0.00025 173.2665 -46.12884 -0.71114 55.98798 2.19236 2.77088 0.05106 -2.6327 -0.14742 118.07631 -73.80993 -90.00446 14.85647 75.68829 6.4722 -6.24115 108.45052 77.96538 90.01521 6.32211 -79.98346 1.1513 5.92052 49.55356 -3.08085 -1.05881 -18.77485 -7.86587 -4.77059 -3.2696 50.3784 6.17134 1.91074 -23.87474 -8.69746 5.20336 3.51907
-0.00017 -2e-05 0.00018 173.27237 -46.10192 -0.70796 56.02004 2.18856 2.77533 0.0033 -2.66061 -0.14692 118.48203 -73.84625 -90.00515 14.79714 75.71681 6.5797 -6.14823 109.5143 77.86338 90.01446 6.40846 -79.99727 1.21583 5.84361 49.50986 -3.10741 -1.23479 -18.77388 -7.84663 -4.75679 -3.25602 50.33897 6.16486 1.86418 -23.87586 -8.69616 5.20441 3.52117
-0.00036 -6e-05 0.00011 173.27821 -46.07506 -0.70479 56.05204 2.18477 2.77985 -0.04442 -2.68842 -0.14643 118.88679 -73.88251 -90.00584 14.73788 75.74527 6.68696 -6.05544 110.57485 77.76173 90.01367 6.49429 -80.01104 1.28015 5.76677 49.46626 -3.13397 -1.41075 -18.77293 -7.82738 -4.74296 -3.24244 50.29962 6.15842 1.81777 -23.87697 -8.69486 5.20547 3.52325
-0.00055 -9e-05 4e-05 173.28406 -46.04822 -0.70162 56.084 2.18098 2.7843 -0.09206 -2.71624 -0.14593 119.29141 -73.91873 -90.00654 14.67872 75.77373 6.79416 -5.96276 111.63546 77.66004 90.013 6.58033 -80.02483 1.3445 5.69007 49.42269 -3.16047 -1.58629 -18.77197 -7.80819 -4.72919 -3.2289 50.26031 6.15197 1.77135 -23.87808 -8.69357 5.20652 3.52534
-0.00073 -0.00013 -3e-05 173.28995 -46.02134 -0.69843 56.11602 2.17719 2.78864 -0.13969 -2.74417 -0.14543 119.69659 -73.955 -90.00723 14.61952 75.80219 6.90151 -5.87007 112.69901 77.55801 90.01213 6.66697 -80.03861 1.40903 5.6134 49.37904 -3.18693 -1.76157 -18.771 -7.78902 -4.71548 -3.21537 50.22093 6.14549 1.72479 -23.87919 -8.69227 5.20757 3.52744
-0.00092 -0.00016 -0.0001 173.29567 -45.9945 -0.69529 56.14797 2.1734 2.79355 -0.1876 -2.77174 -0.14494 120.10031 -73.99124 -90.00791 14.56013 75.83063 7.00855 -5.7771 113.75303 77.45718 90.0114 6.75109 -80.05231 1.47287 5.53622 49.33554 -3.21371 -1.9389 -18.77007 -7.76963 -4.7014 -3.20169 50.18164 6.13912 1.67872 -23.88029 -8.69096 5.20863 3.52951
-0.00111 -0.0002 -0.00017 173.30172 -45.96762 -0.69207 56.18002 2.16961 2.79731 -0.23491 -2.80001 -0.14443 120.50722 -74.02749 -90.00863 14.50122 75.85919 7.11622 -5.68465 114.82574 77.354 90.01103 6.84019 -80.0663 1.53814 5.46008 49.29178 -3.23984 -2.11213 -18.76906 -7.75068 -4.68807 -3.18832 50.14221 6.13252 1.63164 -23.88141 -8.68968 5.20968 3.53162
-0.00129 -0.00023 -0.00024 173.30748 -45.94077 -0.68892 56.21197 2.16581 2.80211 -0.28274 -2.82761 -0.14394 120.90992 -74.06375 -90.00931 14.4418 75.88746 7.2231 -5.59197 115.87996 77.25307 90.00914 6.92471 -80.0798 1.60188 5.38311 49.24826 -3.26651 -2.28875 -18.76814 -7.73136 -4.67409 -3.17469 50.10291 6.12617 1.58564 -23.88252 -8.68836 5.21073 3.53369
-0.00147 -0.00027 -0.00031 173.31281 -45.91397 -0.68587 56.24384 2.16203 2.80829 -0.33136 -2.85448 -0.14347 121.31274 -74.09997 -90.00994 14.38199 75.91612 7.32991 -5.49795 116.91703 77.15451 90.01009 7.00358 -80.0936 1.66461 5.30454 49.205 -3.29411 -2.47121 -18.76729 -7.71144 -4.65911 -3.16063 50.06375 6.11999 1.54034 -23.8836 -8.68707 5.21179 3.53572
-0.00167 -0.0003 -0.00037 173.32041 -45.88692 -0.68229 56.27632 2.15825 2.80686 -0.37593 -2.88581 -0.14289 121.73072 -74.13626 -90.01084 14.32512 75.94475 7.43981 -5.40847 118.06919 77.04119 90.00886 7.11479 -80.10834 1.73574 5.23344 49.16016 -3.31717 -2.62517 -18.7659 -7.69452 -4.64925 -3.14869 50.02372 6.11243 1.48917 -23.88479 -8.68583 5.21285 3.53804
-0.00184 -0.00034 -0.00045 173.32337 -45.86037 -0.67978 56.30741 2.15439 2.82127 -0.42871 -2.90758 -0.14254 122.1065 -74.17249 -90.01118 14.26162 75.97202 7.54144 -5.31148 118.96795 76.95974 90.00318 7.15788 -80.11939 1.78751 5.14768 49.11871 -3.34926 -2.83596 -18.76571 -7.67157 -4.62901 -3.13253 49.98559 6.10803 1.45155 -23.88579 -8.68436 5.21386 3.53971
-0.00193 -0.00037 -0.00054 173.3121 -45.8353 -0.68058 56.33542 2.15103 2.88146 -0.50713 -2.90404 -0.1429 122.44322 -74.2067 -90.00975 14.18269 76.00285 7.63649 -5.17694 119.24231 76.95996 90.01911 7.01176 -80.12775 1.79477 5.00949 49.08602 -3.41113 -3.23241 -18.76835 -7.62935 -4.57638 -3.10245 49.95222 6.11016 1.44157 -23.88608 -8.68311 5.21536 3.5401
-0.002 -0.00041 -0.00063 173.29646 -45.81065 -0.6824 56.36191 2.14749 2.95717 -0.59326 -2.89061 -0.1435 122.71902 -74.24041 -90.00775 14.09633 76.02795 7.72146 -5.03834 119.24271 76.99281 89.9966 6.79797 -80.12659 1.77801 4.85698 49.05677 -3.48123 -3.68105 -18.77226 -7.58155 -4.51396 -3.06851 49.9208 6.1158 1.44665 -23.88623 -8.68148 5.21673 3.53976
-0.00208 -0.00044 -0.00073 173.28381 -45.78583 -0.68347 56.38857 2.14349 3.02424 -0.67375 -2.88125 -0.14396 122.97809 -74.27655 -90.0062 14.01194 76.05476 7.79898 -4.91222 119.33027 77.01508 90.00495 6.61621 -80.13057 1.77039 4.72135 49.02636 -3.54416 -4.08561 -18.77587 -7.53817 -4.45866 -3.0379 49.88883 6.12133 1.45148 -23.8866 -8.67941 5.21775 3.53943
-0.00217 -0.00047 -0.00082 173.26691 -45.76123 -0.68566 56.41734 2.1416 3.09788 -0.76307 -2.87414 -0.14455 123.44233 -74.30662 -90.00403 13.93462 76.09774 7.92229 -4.73979 119.6011 77.02132 90.07066 6.42762 -80.14933 1.78245 4.5495 48.9945 -3.62117 -4.57368 -18.77836 -7.48703 -4.39237 -3.00082 49.8556 6.12087 1.42981 -23.88629 -8.67985 5.22046 3.54044
-0.00222 -0.00052 -0.00092 173.25783 -45.73592 -0.68588 56.44147 2.1355 3.1617 -0.83609 -2.85941 -0.14494 123.44249 -74.34518 -90.00276 13.83938 76.0901 7.95409 -4.66461 119.39243 77.06639 89.86491 6.23886 -80.11219 1.73248 4.44017 48.96618 -3.67131 -4.90337 -18.78344 -7.45045 -4.34627 -2.97605 49.82526 6.13338 1.46527 -23.88738 -8.67509 5.21967 3.53855
-0.00222 -0.00061 -0.00107 173.27194 -45.71117 -0.67915 56.45193 2.1156 3.19307 -0.85875 -2.83136 -0.14466 122.36651 -74.43826 -90.00424 13.70764 76.08149 7.68169 -4.84274 118.21307 77.22431 90.19268 6.05647 -80.1301 1.6512 4.59302 48.94927 -3.6409 -4.75518 -18.79561 -7.45783 -4.36161 -2.98833 49.80404 6.1838 1.66954 -23.89241 -8.65497 5.20868 3.5282
-0.00219 -0.00072 -0.00124 173.29429 -45.68507 -0.67049 56.45776 2.09174 3.21431 -0.86456 -2.79506 -0.14419 120.79011 -74.53171 -90.00522 13.55538 75.99933 7.32731 -5.12106 116.51076 77.41356 90.04685 5.88098 -80.06146 1.48521 4.79627 48.93531 -3.584 -4.45078 -18.81035 -7.47965 -4.39703 -3.01276 49.78533 6.24665 1.92861 -23.89889 -8.62977 5.19423 3.51505
-0.00216 -0.00081 -0.00139 173.31215 -45.65802 -0.66372 56.46686 2.07134 3.24115 -0.88139 -2.759 -0.14386 119.31783 -74.60774 -90.00812 13.406 75.85708 7.04631 -5.36518 114.85571 77.58474 89.2367 5.70505 -79.88643 1.26762 4.91612 48.91843 -3.54199 -4.23632 -18.82363 -7.49327 -4.42105 -3.0302 49.76441 6.3018 2.15214 -23.90462 -8.60772 5.18182 3.50365
-0.00217 -0.00092 -0.00157 173.33175 -45.63813 -0.65333 56.47202 2.0445 3.26426 -0.88767 -2.73718 -0.14333 118.36364 -74.76647 -90.00959 13.28624 76.09766 6.61383 -5.56473 113.98045 77.79001 91.99027 5.50348 -80.29324 1.42166 5.27828 48.9085 -3.48802 -3.94442 -18.83792 -7.5135 -4.45419 -3.05361 49.74817 6.36548 2.41865 -23.91054 -8.58239 5.16769 3.49037
-0.00208 -0.00101 -0.00169 173.35128 -45.60235 -0.64926 56.48299 2.02941 3.29261 -0.90756 -2.68414 -0.14316 116.21272 -74.74063 -90.00673 13.0967 75.53822 6.47578 -5.87666 111.37854 77.91023 87.39512 5.37274 -79.50917 0.79178 5.16367 48.88456 -3.45284 -3.77511 -18.85104 -7.52358 -4.47342 -3.06765 49.72265 6.41461 2.61154 -23.91662 -8.56234 5.15601 3.48014
-0.00171 -0.00099 -0.00164 173.35548 -45.52851 -0.66942 56.52187 2.05366 3.33687 -1.00386 -2.54532 -0.14399 110.8801 -74.30768 -90.01971 12.74978 72.67067 7.16991 -6.51063 103.98638 77.96573 61.00827 5.30837 -75.10177 -2.06935 3.58357 48.82273 -3.47352 -3.98966 -18.85723 -7.50106 -4.44778 -3.05189 49.67176 6.41792 2.56042 -23.92089 -8.56128 5.15474 3.48089
-0.00122 -0.00096 -0.00153 173.36189 -45.43775 -0.69484 56.56439 2.08865 3.38656 -1.10681 -2.37608 -0.14524 104.36432 -73.66756 -89.99979 12.32916 69.02945 8.15223 -7.24696 94.90819 77.89971 27.53285 5.33888 -69.56528 -5.70102 1.54653 48.74639 -3.51433 -4.33099 -18.86266 -7.46806 -4.40785 -3.02652 49.6113 6.40659 2.43791 -23.92559 -8.56518 5.15557 3.48447
-0.00077 -0.00095 -0.00144 173.37575 -45.35108 -0.71371 56.59869 2.11494 3.4348 -1.18529 -2.22144 -0.14627 98.3855 -73.05782 -90.00643 11.92063 65.8102 9.01746 -7.91338 86.69658 77.77444 -1.62376 5.4103 -64.77941 -8.92132 -0.19039 48.67569 -3.54763 -4.60983 -18.87053 -7.4405 -4.37548 -3.00618 49.55457 6.4037 2.36642 -23.93139 -8.56468 5.15359 3.4855
-0.0004 -0.00088 -0.00136 173.35373 -45.27937 -0.75003 56.66207 2.1576 3.47974 -1.35824 -2.06177 -0.14724 92.37701 -72.72654 -90.05999 11.59584 62.26232 9.86712 -8.68427 78.02583 78.13967 -35.38436 5.12842 -58.98832 -12.39901 -2.31193 48.60913 -3.57351 -4.90541 -18.86991 -7.41042 -4.33907 -2.98338 49.50035 6.39385 2.2201 -23.93191 -8.57288 5.15924 3.49173
0.00017 -0.00094 -0.00126 173.40744 -45.17275 -0.75133 56.66392 2.16828 3.53131 -1.33057 -1.90726 -0.14866 86.17504 -71.7545 -89.88768 11.0868 59.25249 10.76115 -9.25776 69.93923 77.44634 -61.28975 5.60325 -55.02332 -15.52741 -3.74655 48.53041 -3.61945 -5.1963 -18.88642 -7.38313 -4.3077 -2.96339 49.43883 6.39466 2.20989 -23.94333 -8.56444 5.14964 3.48791
0.00127 -0.00138 -0.00107 173.66445 -44.97182 -0.65438 56.51112 2.09233 3.61463 -0.79592 -1.75915 -0.14918 79.56693 -69.16411 -90.16322 10.0295 57.59665 12.21847 -9.28594 63.69993 73.92594 -63.26871 8.1619 -56.38443 -17.45347 -3.12865 48.42221 -3.72056 -5.46167 -18.95336 -7.36408 -4.29114 -2.95217 49.35786 6.43014 2.61012 -23.98633 -8.50681 5.09667 3.45519
0.00258 -0.00195 -0.00087 173.99821 -44.73689 -0.52224 56.29341 1.98324 3.70212 -0.05047 -1.62017 -0.15051 72.83824 -65.91885 -90.0379 8.80417 56.56167 13.62806 -9.10778 58.14367 69.3334 -57.18574 11.47738 -59.62116 -19.00577 -1.81182 48.30233 -3.84043 -5.71598 -19.03702 -7.34845 -4.2804 -2.94424 49.27028 6.47647 3.14593 -24.03996 -8.43271 5.0285 3.41241
